<svg xmlns="http://www.w3.org/2000/svg" xmlns:xlink="http://www.w3.org/1999/xlink" version="1.1" width="2370pt" height="2370pt" viewBox="0 0 2370 2370">
<defs>
<clipPath id="clip_1">
<path transform="matrix(.01968504,0,0,.01968504,0,0)" d="M0 0H120701V120701H0V0Z"/>
</clipPath>
<path id="font_2_1" d="M.011993408 0 .34399415 .7649994H.352005L.68400576 0H.51600649L.30400086 .5379944 .40899659 .6100006 .15499878 0H.011993408M.23899842 .26600648H.4600067L.5110016 .14399719H.19400025L.23899842 .26600648Z"/>
<path id="font_2_347" d="M.19799805 .43699647 .21099854 .31700135 .20799256 .3350067C.22066753 .36099754 .23800151 .38315837 .2599945 .40148927 .28199769 .41983033 .303833 .43400065 .3255005 .44400025 .34716798 .45399986 .36366783 .45899964 .375 .45899964L.36799623 .31900025C.33533225 .32299806 .30733238 .31766258 .28399659 .30299378 .2606608 .28833518 .24266052 .2690023 .22999573 .24499512 .21733094 .22099813 .21099854 .19633484 .21099854 .17100525V0H.072006229V.43699647H.19799805Z"/>
<path id="font_2_360" d="M.11300659 .6289978H.25300599V.43899537H.35899354V.33000184H.25300599V0H.11300659V.33000184H.04499817V.43899537H.11300659V.6289978Z"/>
<path id="font_2_274" d="M.072006229 .43699647H.21200562V0H.072006229V.43699647M.069000247 .59246829C.069000247 .61313888 .0771637 .63013717 .0934906 .64346316 .109827678 .6567993 .12732952 .6634674 .1459961 .6634674 .16466268 .6634674 .18182881 .6567993 .1974945 .64346316 .21317037 .63013717 .2210083 .61313888 .2210083 .59246829 .2210083 .57179769 .21317037 .55496218 .1974945 .54196169 .18182881 .5289714 .16466268 .5224762 .1459961 .5224762 .12732952 .5224762 .109827678 .5289714 .0934906 .54196169 .0771637 .55496218 .069000247 .57179769 .069000247 .59246829Z"/>
<path id="font_2_313" d="M.037994386 .22399903C.037994386 .2686666 .04849243 .30866496 .069488529 .34399415 .09049479 .3793335 .11999512 .40716554 .1579895 .42749024 .19599407 .4478251 .23966472 .45799256 .28900147 .45799256 .33899943 .45799256 .38232932 .4478251 .4189911 .42749024 .45566307 .40716554 .48383079 .3793335 .50349429 .34399415 .5231679 .30866496 .53300479 .2686666 .53300479 .22399903 .53300479 .17933147 .5231679 .13916524 .50349429 .103500369 .48383079 .06783549 .45566307 .039667768 .4189911 .018997193 .38232932-.001663208 .33833314-.011993408 .28700257-.011993408 .23899842-.011993408 .19616191-.0026601155 .15849304 .01600647 .12083435 .034673055 .09133402 .06167094 .069992069 .09700012 .04866028 .1323293 .037994386 .17466228 .037994386 .22399903M.17900086 .2230072C.17900086 .20033264 .18366497 .17982991 .19299317 .16149903 .20233155 .14316814 .21500142 .12866719 .23100281 .117996219 .2470042 .10733541 .2650045 .102005008 .28500367 .102005008 .30699668 .102005008 .32599388 .10733541 .34199525 .117996219 .3579966 .12866719 .3703308 .14316814 .3789978 .16149903 .3876648 .17982991 .3919983 .20033264 .3919983 .2230072 .3919983 .24633281 .3876648 .2669932 .3789978 .2849884 .3703308 .30299378 .3579966 .31732688 .34199525 .32798768 .32599388 .33865867 .30699668 .34399415 .28500367 .34399415 .2650045 .34399415 .2470042 .33865867 .23100281 .32798768 .21500142 .31732688 .20233155 .30299378 .19299317 .2849884 .18366497 .2669932 .17900086 .24633281 .17900086 .2230072Z"/>
</defs>
<g>
<g clip-path="url(#clip_1)">
<path transform="matrix(.01968504,0,0,.01968504,0,0)" d="M0 0H120701V120701H0Z" fill-opacity="0" fill-rule="evenodd"/>
<path transform="matrix(.01968504,0,0,.01968504,0,0)" d="M2636.5 60350.5V60350.5C2636.5 28475.938 28475.938 2636.5 60350.5 2636.5 75657.2 2636.5 90336.988 8717.064 101160.46 19540.54 111983.94 30364.014 118064.5 45043.798 118064.5 60350.5 118064.5 92225.06 92225.06 118064.5 60350.5 118064.5 28475.938 118064.5 2636.5 92225.06 2636.5 60350.5Z" fill="#3f5347" fill-rule="evenodd"/>
<path transform="matrix(.01968504,0,0,.01968504,0,0)" stroke-width="381" stroke-linecap="butt" stroke-linejoin="round" fill="none" stroke="#3f5347" d="M2636.5 60350.5V60350.5C2636.5 28475.938 28475.938 2636.5 60350.5 2636.5 75657.2 2636.5 90336.988 8717.064 101160.46 19540.54 111983.94 30364.014 118064.5 45043.798 118064.5 60350.5 118064.5 92225.06 92225.06 118064.5 60350.5 118064.5 28475.938 118064.5 2636.5 92225.06 2636.5 60350.5Z"/>
<path transform="matrix(.01968504,0,0,.01968504,0,0)" d="M69324.339 27376.3 68835.77 28822.434 70406.33 29773.77 70860.01 29050.758 71488.21 31448.227 70615.73 38374.384 65206 37917.736 67509.5 32704.07 66741.67 30420.82 66357.75 27794.915 67823.66 25663.807Z" fill="#e69138" fill-rule="evenodd"/>
<path transform="matrix(.01968504,0,0,.01968504,0,0)" stroke-width="381" stroke-linecap="butt" stroke-linejoin="round" fill="none" stroke="#dc912f" d="M69324.339 27376.3 68835.77 28822.434 70406.33 29773.77 70860.01 29050.758 71488.21 31448.227 70615.73 38374.384 65206 37917.736 67509.5 32704.07 66741.67 30420.82 66357.75 27794.915 67823.66 25663.807Z"/>
<path transform="matrix(.01968504,0,0,.01968504,0,0)" d="M70618.27 28310.98 70643.86 27975.325 70746.51 27639.668 70849.15 27052.272 71105.72 27080.165 71028.76 26185.122 71310.91 25262.069 71439.13 24199.083 70926.11 23108.2 70361.71 22492.793 70053.878 21625.645 70105.15 22716.526 70438.67 23303.922 69207.33 22744.536 67847.66 22772.545 67411.49 22968.268 64692.248 20096.52 65256.646 21215.41 64640.87 20460.07 65436.146 21998.532 65025.77 21662.875 66513.67 23676.924 65846.628 24264.323 65051.35 25793.446 65282.23 29206.139 64538.333 30800.504 63666.099 31695.663 63589.138 33262.134 64409.998 35052.337 64153.537 33429.96 64281.767 32115.233 65692.71 30408.944 67565.41 26716.616 68335.1 27359.916 69181.64 27667.678 69874.27 28171.163Z" fill="#e69138" fill-rule="evenodd"/>
<path transform="matrix(.01968504,0,0,.01968504,0,0)" stroke-width="381" stroke-linecap="butt" stroke-linejoin="round" fill="none" stroke="#dc912f" d="M70618.27 28310.98 70643.86 27975.325 70746.51 27639.668 70849.15 27052.272 71105.72 27080.165 71028.76 26185.122 71310.91 25262.069 71439.13 24199.083 70926.11 23108.2 70361.71 22492.793 70053.878 21625.645 70105.15 22716.526 70438.67 23303.922 69207.33 22744.536 67847.66 22772.545 67411.49 22968.268 64692.248 20096.52 65256.646 21215.41 64640.87 20460.07 65436.146 21998.532 65025.77 21662.875 66513.67 23676.924 65846.628 24264.323 65051.35 25793.446 65282.23 29206.139 64538.333 30800.504 63666.099 31695.663 63589.138 33262.134 64409.998 35052.337 64153.537 33429.96 64281.767 32115.233 65692.71 30408.944 67565.41 26716.616 68335.1 27359.916 69181.64 27667.678 69874.27 28171.163Z"/>
<path transform="matrix(.01968504,0,0,.01968504,0,0)" d="M62280.974 48266.416 61446.3 50086.63 62959.048 55206.01H66975.808L65254.337 53385.798 65619.66 50598.64 64472.01 47811.48Z" fill="#e69138" fill-rule="evenodd"/>
<path transform="matrix(.01968504,0,0,.01968504,0,0)" stroke-width="381" stroke-linecap="butt" stroke-linejoin="round" fill="none" stroke="#dc912f" d="M62280.974 48266.416 61446.3 50086.63 62959.048 55206.01H66975.808L65254.337 53385.798 65619.66 50598.64 64472.01 47811.48Z"/>
<path transform="matrix(.01968504,0,0,.01968504,0,0)" d="M43344.583 43943.466 46004.978 38824.326 52786.607 34728.724 63480.744 35809.58 65515.189 34728.724 73392.339 36492.099 74174.88 34956.31 75166.15 35752.744 75583.378 37174.619 77669.949 39336.095 77826.55 41156.31 78922.06 43033.36 77930.8 44114.216 73131.488 43943.466 69740.67 44853.576 69271.32 47470.224 71618.74 49631.697 72505.54 53727.06 69740.67 54182.23 69845.15 52816.95 65567.31 50655.478 63689.466 48778.427 62228.845 48039.07 53986.376 49859.28 53099.58 52816.95 54560.2 55092.34 49656.64 54978.42 47883.044 49062.849 45326.904 52589.607 46683.05 55092.34 43083.736 55206.01 41779.494 51395.076 43918.408 44967.49Z" fill="#e69138" fill-rule="evenodd"/>
<path transform="matrix(.01968504,0,0,.01968504,0,0)" stroke-width="381" stroke-linecap="butt" stroke-linejoin="round" fill="none" stroke="#dc912f" d="M43344.583 43943.466 46004.978 38824.326 52786.607 34728.724 63480.744 35809.58 65515.189 34728.724 73392.339 36492.099 74174.88 34956.31 75166.15 35752.744 75583.378 37174.619 77669.949 39336.095 77826.55 41156.31 78922.06 43033.36 77930.8 44114.216 73131.488 43943.466 69740.67 44853.576 69271.32 47470.224 71618.74 49631.697 72505.54 53727.06 69740.67 54182.23 69845.15 52816.95 65567.31 50655.478 63689.466 48778.427 62228.845 48039.07 53986.376 49859.28 53099.58 52816.95 54560.2 55092.34 49656.64 54978.42 47883.044 49062.849 45326.904 52589.607 46683.05 55092.34 43083.736 55206.01 41779.494 51395.076 43918.408 44967.49Z"/>
<path transform="matrix(.01968504,0,0,.01968504,0,0)" d="M-27.5 50624.48H120728.5V100604.48H-27.5Z" fill-opacity="0" fill-rule="evenodd"/>
<use data-text="A" xlink:href="#font_2_1" transform="matrix(690,0,0,-690,375.5269,1726.4448)" fill="#ffffff"/>
<use data-text="r" xlink:href="#font_2_347" transform="matrix(690,0,0,-690,855.76699,1726.4448)" fill="#ffffff"/>
<use data-text="t" xlink:href="#font_2_360" transform="matrix(690,0,0,-690,1138.6669,1726.4448)" fill="#ffffff"/>
<use data-text="i" xlink:href="#font_2_274" transform="matrix(690,0,0,-690,1410.527,1726.4448)" fill="#ffffff"/>
<use data-text="o" xlink:href="#font_2_313" transform="matrix(690,0,0,-690,1606.4869,1726.4448)" fill="#ffffff"/>
</g>
</g>
</svg>
